<?xml version="1.0" encoding="utf-8"?>
<svg xmlns="http://www.w3.org/2000/svg" xmlns:xlink="http://www.w3.org/1999/xlink" style="margin: auto; background: rgb(255, 255, 255); display: block; shape-rendering: auto;" width="78px" height="78px" viewBox="0 0 100 100" preserveAspectRatio="xMidYMid">
<g transform="translate(50 50)">
<g>
<animateTransform attributeName="transform" type="rotate" values="0;45" keyTimes="0;1" dur="0.4854368932038836s" repeatCount="indefinite"></animateTransform><path d="M27.45450782658469 -5.5 L35.45450782658469 -5.5 L35.45450782658469 5.5 L27.45450782658469 5.5 A28 28 0 0 1 23.302355954843186 15.524181361791165 L23.302355954843186 15.524181361791165 L28.959210204335566 21.181035611283544 L21.181035611283548 28.959210204335566 L15.524181361791168 23.302355954843186 A28 28 0 0 1 5.500000000000001 27.45450782658469 L5.500000000000001 27.45450782658469 L5.500000000000002 35.45450782658469 L-5.4999999999999964 35.45450782658469 L-5.499999999999997 27.454507826584692 A28 28 0 0 1 -15.524181361791157 23.302355954843193 L-15.524181361791157 23.302355954843193 L-21.181035611283537 28.959210204335577 L-28.95921020433557 21.181035611283548 L-23.30235595484319 15.524181361791165 A28 28 0 0 1 -27.45450782658469 5.500000000000009 L-27.45450782658469 5.500000000000009 L-35.45450782658469 5.50000000000001 L-35.45450782658469 -5.500000000000001 L-27.45450782658469 -5.500000000000002 A28 28 0 0 1 -23.302355954843193 -15.524181361791157 L-23.302355954843193 -15.524181361791157 L-28.959210204335577 -21.181035611283537 L-21.181035611283548 -28.95921020433557 L-15.524181361791165 -23.30235595484319 A28 28 0 0 1 -5.50000000000001 -27.45450782658469 L-5.50000000000001 -27.45450782658469 L-5.5000000000000115 -35.45450782658469 L5.499999999999998 -35.45450782658469 L5.5 -27.45450782658469 A28 28 0 0 1 15.524181361791154 -23.302355954843197 L15.524181361791154 -23.302355954843197 L21.181035611283534 -28.959210204335577 L28.959210204335566 -21.181035611283548 L23.302355954843186 -15.524181361791168 A28 28 0 0 1 27.45450782658469 -5.5000000000000115 M0 -17A17 17 0 1 0 0 17 A17 17 0 1 0 0 -17" fill="#85a2b6"></path></g></g>
<!-- [ldio] generated by https://loading.io/ --></svg>